<svg width="18" height="20" viewBox="0 0 18 20" fill="none" xmlns="http://www.w3.org/2000/svg">
<path opacity="0.5" d="M10.4498 19.4753C13.4827 18.8721 17.4043 16.7048 17.4043 11.1013C17.4043 6.00269 13.6466 2.60684 10.9436 1.04671C10.345 0.6998 9.64256 1.1556 9.64256 1.8446V3.60613C9.64256 4.99569 9.05461 7.53198 7.42077 8.58716C6.58639 9.12584 5.68409 8.31927 5.58319 7.33636L5.49975 6.52884C5.40273 5.59025 4.44028 5.02075 3.68545 5.59315C2.32813 6.61942 0.910645 8.42142 0.910645 11.1003C0.910645 17.9527 6.0421 19.6671 8.60734 19.6671C8.75675 19.6671 8.91393 19.6613 9.07692 19.6526C9.50964 19.5986 9.07692 19.748 10.4498 19.4743V19.4753Z" fill="#FFB84D"/>
<path d="M5.76172 16.24C5.76172 18.7647 7.80984 19.5453 9.07694 19.6532C9.50965 19.5992 9.07694 19.7486 10.4498 19.4749C11.4578 19.1213 12.5532 18.2135 12.5532 16.24C12.5532 14.9901 11.7586 14.2183 11.1367 13.8569C10.9465 13.7461 10.7253 13.8858 10.7088 14.1036C10.6545 14.7955 9.98506 15.3467 9.53003 14.8205C9.12739 14.3561 8.9576 13.6767 8.9576 13.2421V12.6736C8.9576 12.3324 8.61123 12.105 8.31435 12.2804C7.21219 12.9289 5.76172 14.2645 5.76172 16.24Z" fill="#FFB84D"/>
</svg>
