<svg width="300" height="300" viewBox="0 0 300 300" fill="none" xmlns="http://www.w3.org/2000/svg">
<rect width="300" height="300" rx="10" fill="white"/>
<g filter="url(#filter0_d_20_284)">
<path d="M233.526 66.5424C222.577 55.4849 209.551 46.6997 195.196 40.6916C180.841 34.6835 165.441 31.5709 149.88 31.5326C134.318 31.4943 118.903 34.531 104.519 40.4684C90.1346 46.4058 77.0654 55.1267 66.0619 66.1302C55.0584 77.1338 46.3374 90.203 40.4 104.587C34.4627 118.971 31.4259 134.387 31.4642 149.948C31.5025 165.509 34.6151 180.91 40.6232 195.264C46.6313 209.619 55.4165 222.645 66.474 233.594C77.4233 244.652 90.4494 253.437 104.804 259.445C119.159 265.453 134.559 268.566 150.12 268.604C165.682 268.642 181.097 265.606 195.481 259.668C209.865 253.731 222.935 245.01 233.938 234.007C244.942 223.003 253.663 209.934 259.6 195.55C265.537 181.166 268.574 165.75 268.536 150.189C268.498 134.628 265.385 119.227 259.377 104.872C253.369 90.5178 244.584 77.4916 233.526 66.5424ZM48.75 150.068C48.7462 141.107 49.9344 132.186 52.2832 123.538C56.1539 131.87 61.7754 139.068 65.5987 147.616C70.5399 158.606 83.8078 155.558 89.6666 165.187C94.8662 173.736 89.3133 184.546 93.2051 193.49C96.0317 199.981 102.697 201.4 107.296 206.146C111.994 210.934 111.894 217.495 112.611 223.738C113.421 231.074 114.733 238.346 116.54 245.502C116.54 245.555 116.54 245.613 116.582 245.665C77.1211 231.807 48.75 194.191 48.75 150.068ZM150 251.318C144.346 251.317 138.701 250.844 133.125 249.905C133.183 248.476 133.209 247.142 133.352 246.214C134.633 237.829 138.831 229.629 144.495 223.353C150.09 217.162 157.757 212.975 162.482 205.951C167.112 199.096 168.499 189.867 166.59 181.857C163.78 170.023 147.701 166.073 139.031 159.655C134.048 155.964 129.613 150.258 123.069 149.794C120.052 149.583 117.526 150.232 114.536 149.462C111.794 148.75 109.642 147.273 106.721 147.658C101.263 148.376 97.8194 154.208 91.9553 153.417C86.3918 152.673 80.6596 146.161 79.394 140.861C77.7698 134.048 83.1592 131.838 88.9336 131.232C91.3436 130.979 94.0489 130.704 96.3639 131.59C99.4119 132.719 100.852 135.704 103.589 137.212C108.72 140.028 109.758 135.53 108.973 130.973C107.797 124.149 106.426 121.37 112.511 116.672C116.73 113.434 120.337 111.092 119.662 105.276C119.261 101.859 117.389 100.313 119.135 96.9121C120.458 94.3229 124.092 91.9867 126.459 90.4416C132.571 86.4549 152.642 86.7502 144.442 75.5916C142.032 72.3168 137.586 66.4633 133.368 65.6617C128.094 64.6651 125.753 70.5502 122.077 73.1447C118.28 75.8289 110.887 78.877 107.085 74.7268C101.97 69.1422 110.476 67.3123 112.358 63.41C113.228 61.5906 112.358 59.0647 110.892 56.6864C112.794 55.8848 114.728 55.1412 116.693 54.4557C117.925 55.3654 119.386 55.9132 120.912 56.0377C124.44 56.2697 127.767 54.3608 130.847 56.7655C134.264 59.4022 136.727 62.735 141.262 63.5576C145.649 64.3539 150.295 61.7963 151.382 57.3033C152.041 54.5717 151.382 51.6871 150.749 48.8658C170.472 48.9793 189.726 54.8859 206.12 65.8516C205.065 65.4508 203.805 65.4983 202.249 66.2207C199.048 67.7078 194.513 71.4942 194.139 75.2489C193.712 79.5098 199.997 80.111 202.982 80.111C207.465 80.111 212.005 78.1071 210.56 72.9285C209.933 70.6821 209.078 68.3459 207.702 66.9326C211.011 69.2285 214.18 71.7184 217.194 74.3893C217.147 74.4367 217.099 74.4789 217.052 74.5317C214.014 77.6957 210.486 80.2006 208.409 84.0502C206.943 86.7608 205.292 88.0475 202.323 88.7489C200.688 89.1338 198.822 89.2762 197.45 90.3731C193.632 93.3789 195.805 100.604 199.423 102.771C203.995 105.508 210.776 104.221 214.225 100.313C216.92 97.2549 218.507 91.9446 223.354 91.9498C225.487 91.9454 227.537 92.7808 229.059 94.2754C231.063 96.3531 230.668 98.2938 231.095 100.888C231.849 105.497 235.915 102.998 238.388 100.672C240.191 103.881 241.818 107.185 243.261 110.57C240.54 114.488 238.378 118.76 231.833 114.193C227.915 111.456 225.505 107.485 220.585 106.251C216.287 105.197 211.884 106.294 207.639 107.027C202.813 107.865 197.092 108.234 193.432 111.889C189.894 115.411 188.021 120.126 184.256 123.664C176.974 130.52 173.899 138.003 178.614 147.695C183.149 157.013 192.636 162.071 202.872 161.406C212.928 160.737 223.375 154.904 223.085 169.517C222.979 174.69 224.06 178.271 225.647 183.075C227.119 187.505 227.019 191.797 227.356 196.369C227.677 201.723 228.514 207.033 229.856 212.226C220.404 224.396 208.295 234.245 194.455 241.02C180.615 247.795 165.409 251.318 150 251.318Z" fill="#FFB84C"/>
</g>
<defs>
<filter id="filter0_d_20_284" x="31.4639" y="31.5322" width="245.072" height="245.072" filterUnits="userSpaceOnUse" color-interpolation-filters="sRGB">
<feFlood flood-opacity="0" result="BackgroundImageFix"/>
<feColorMatrix in="SourceAlpha" type="matrix" values="0 0 0 0 0 0 0 0 0 0 0 0 0 0 0 0 0 0 127 0" result="hardAlpha"/>
<feOffset dx="4" dy="4"/>
<feGaussianBlur stdDeviation="2"/>
<feComposite in2="hardAlpha" operator="out"/>
<feColorMatrix type="matrix" values="0 0 0 0 0 0 0 0 0 0 0 0 0 0 0 0 0 0 0.25 0"/>
<feBlend mode="normal" in2="BackgroundImageFix" result="effect1_dropShadow_20_284"/>
<feBlend mode="normal" in="SourceGraphic" in2="effect1_dropShadow_20_284" result="shape"/>
</filter>
</defs>
</svg>
